M48
;DRILL file {kicad 0.201411241846+5301~19~ubuntu14.04.1-product} date Tue Jun  9 07:58:55 2015
;FORMAT={-:-/ absolute / inch / decimal}
FMAT,2
INCH,TZ
T1C0.016
T2C0.024
T3C0.032
T4C0.036
T5C0.040
%
G90
G05
M72
T1
X5.6496Y-2.9154
X5.6673Y-2.9902
X5.7185Y-2.8484
X5.7323Y-2.7559
X5.876Y-2.9783
T2
X5.2181Y-2.4685
X5.2185Y-2.2933
X5.43Y-2.585
X5.43Y-2.685
X5.43Y-2.785
X5.43Y-2.885
X5.43Y-2.985
X5.6122Y-2.4724
T3
X5.1315Y-1.8504
X5.19Y-3.13
X5.2315Y-1.8504
X5.29Y-3.13
X5.29Y-3.23
X5.3315Y-1.8504
X5.39Y-3.13
X5.39Y-3.23
X5.4315Y-1.8504
X5.49Y-3.13
X5.49Y-3.23
X5.5799Y-1.8504
X5.6799Y-1.8504
X5.6862Y-3.2323
X5.7862Y-3.2323
T4
X5.8071Y-1.9909
X5.8071Y-2.0909
X5.8071Y-2.1909
X5.8071Y-2.2909
X5.8071Y-2.3909
X5.8071Y-2.4909
X5.8071Y-2.5909
X5.8071Y-2.6909
X5.8071Y-2.7909
X5.8071Y-2.8909
T5
X5.19Y-3.23
T0
M30
