G04 #@! TF.FileFunction,Soldermask,Top*
%FSLAX46Y46*%
G04 Gerber Fmt 4.6, Leading zero omitted, Abs format (unit mm)*
G04 Created by KiCad (PCBNEW 0.201411241846+5301~19~ubuntu14.04.1-product) date Tue Jun  9 07:58:50 2015*
%MOMM*%
G01*
G04 APERTURE LIST*
%ADD10C,0.100000*%
%ADD11R,1.300000X1.000000*%
%ADD12R,1.000000X1.300000*%
%ADD13C,1.727200*%
%ADD14R,2.032000X1.727200*%
%ADD15O,2.032000X1.727200*%
%ADD16R,1.270000X1.270000*%
%ADD17C,1.270000*%
%ADD18R,1.270000X0.762000*%
%ADD19R,1.727200X1.727200*%
%ADD20O,1.524000X1.727200*%
G04 APERTURE END LIST*
D10*
D11*
X132550000Y-61400000D03*
X132550000Y-59400000D03*
X129600000Y-81800000D03*
X129600000Y-79800000D03*
D12*
X147150000Y-76850000D03*
X149150000Y-76850000D03*
X147100000Y-79100000D03*
X149100000Y-79100000D03*
D13*
X146970000Y-82100000D03*
X144430000Y-82100000D03*
X144270000Y-47000000D03*
X141730000Y-47000000D03*
D14*
X147500000Y-50570000D03*
D15*
X147500000Y-53110000D03*
X147500000Y-55650000D03*
X147500000Y-58190000D03*
X147500000Y-60730000D03*
X147500000Y-63270000D03*
X147500000Y-65810000D03*
X147500000Y-68350000D03*
X147500000Y-70890000D03*
X147500000Y-73430000D03*
D16*
X137922000Y-75819000D03*
D17*
X137922000Y-73279000D03*
X137922000Y-70739000D03*
X137922000Y-68199000D03*
X137922000Y-65659000D03*
D13*
X130340000Y-47000000D03*
X132880000Y-47000000D03*
X135420000Y-47000000D03*
X137960000Y-47000000D03*
D12*
X143300000Y-76850000D03*
X145300000Y-76850000D03*
X143150000Y-79100000D03*
X145150000Y-79100000D03*
D18*
X132541000Y-63881000D03*
X132541000Y-65151000D03*
X132541000Y-66421000D03*
X132541000Y-67691000D03*
X132541000Y-68961000D03*
X132541000Y-70231000D03*
X132541000Y-71501000D03*
X132541000Y-72771000D03*
X132541000Y-74041000D03*
X132541000Y-75311000D03*
X142541000Y-63881000D03*
X142541000Y-65151000D03*
X142541000Y-66421000D03*
X142541000Y-67691000D03*
X142541000Y-68961000D03*
X142541000Y-70231000D03*
X142541000Y-71501000D03*
X142541000Y-72771000D03*
X142541000Y-74041000D03*
X142541000Y-75311000D03*
D19*
X131826000Y-82042000D03*
D20*
X131826000Y-79502000D03*
X134366000Y-82042000D03*
X134366000Y-79502000D03*
X136906000Y-82042000D03*
X136906000Y-79502000D03*
X139446000Y-82042000D03*
X139446000Y-79502000D03*
M02*
