G04 #@! TF.FileFunction,Copper,L2,Bot,Signal*
%FSLAX46Y46*%
G04 Gerber Fmt 4.6, Leading zero omitted, Abs format (unit mm)*
G04 Created by KiCad (PCBNEW 0.201411241846+5301~19~ubuntu14.04.1-product) date Tue Jun  9 07:59:30 2015*
%MOMM*%
G01*
G04 APERTURE LIST*
%ADD10C,0.100000*%
%ADD11C,1.727200*%
%ADD12R,2.032000X1.727200*%
%ADD13O,2.032000X1.727200*%
%ADD14R,1.270000X1.270000*%
%ADD15C,1.270000*%
%ADD16R,1.727200X1.727200*%
%ADD17O,1.524000X1.727200*%
%ADD18C,0.609600*%
%ADD19C,1.016000*%
%ADD20C,0.304800*%
%ADD21C,0.762000*%
%ADD22C,0.250000*%
%ADD23C,0.500000*%
%ADD24C,0.254000*%
G04 APERTURE END LIST*
D10*
D11*
X146970000Y-82100000D03*
X144430000Y-82100000D03*
X144270000Y-47000000D03*
X141730000Y-47000000D03*
D12*
X147500000Y-50570000D03*
D13*
X147500000Y-53110000D03*
X147500000Y-55650000D03*
X147500000Y-58190000D03*
X147500000Y-60730000D03*
X147500000Y-63270000D03*
X147500000Y-65810000D03*
X147500000Y-68350000D03*
X147500000Y-70890000D03*
X147500000Y-73430000D03*
D14*
X137922000Y-75819000D03*
D15*
X137922000Y-73279000D03*
X137922000Y-70739000D03*
X137922000Y-68199000D03*
X137922000Y-65659000D03*
D11*
X130340000Y-47000000D03*
X132880000Y-47000000D03*
X135420000Y-47000000D03*
X137960000Y-47000000D03*
D16*
X131826000Y-82042000D03*
D17*
X131826000Y-79502000D03*
X134366000Y-82042000D03*
X134366000Y-79502000D03*
X136906000Y-82042000D03*
X136906000Y-79502000D03*
X139446000Y-82042000D03*
X139446000Y-79502000D03*
D18*
X149250000Y-75650000D03*
D19*
X142550000Y-62800000D03*
X132550000Y-58250000D03*
X132541000Y-62700000D03*
D18*
X145600000Y-70000000D03*
X145250000Y-72350000D03*
X143500000Y-74050000D03*
X143950000Y-75950000D03*
D20*
X149250000Y-69000000D02*
X148600000Y-68350000D01*
X148600000Y-68350000D02*
X147500000Y-68350000D01*
X149250000Y-75650000D02*
X149250000Y-69000000D01*
X142550000Y-62250000D02*
X138550000Y-58250000D01*
X138550000Y-58250000D02*
X132550000Y-58250000D01*
X142550000Y-62800000D02*
X142550000Y-62250000D01*
X130340000Y-56040000D02*
X132550000Y-58250000D01*
X130340000Y-46200000D02*
X130340000Y-56040000D01*
X136939000Y-70739000D02*
X130800000Y-64600000D01*
X130800000Y-64600000D02*
X130800000Y-60000000D01*
X130800000Y-60000000D02*
X132550000Y-58250000D01*
X137922000Y-70739000D02*
X136939000Y-70739000D01*
D21*
X145650000Y-83850000D02*
X132350000Y-83850000D01*
X132350000Y-83850000D02*
X131826000Y-83326000D01*
X131826000Y-83326000D02*
X131826000Y-82042000D01*
X146970000Y-82530000D02*
X145650000Y-83850000D01*
X146970000Y-82100000D02*
X146970000Y-82530000D01*
X132200000Y-58250000D02*
X130600000Y-59850000D01*
X130600000Y-59850000D02*
X130600000Y-75850000D01*
X130600000Y-75850000D02*
X129800000Y-76650000D01*
X129800000Y-76650000D02*
X129800000Y-81400000D01*
X129800000Y-81400000D02*
X130442000Y-82042000D01*
X130442000Y-82042000D02*
X131826000Y-82042000D01*
X132550000Y-58250000D02*
X132200000Y-58250000D01*
D20*
X132541000Y-62700000D02*
X132550000Y-62700000D01*
D21*
X141100000Y-72400000D02*
X141100000Y-70750000D01*
X141100000Y-72550000D02*
X141100000Y-72400000D01*
X141100000Y-73750000D02*
X141100000Y-72550000D01*
X140629000Y-73279000D02*
X141100000Y-73750000D01*
X137922000Y-73279000D02*
X140629000Y-73279000D01*
X141100000Y-65250000D02*
X138550000Y-62700000D01*
X138550000Y-62700000D02*
X132541000Y-62700000D01*
X141100000Y-65800000D02*
X141100000Y-65250000D01*
X141100000Y-70750000D02*
X141100000Y-65800000D01*
X141100000Y-65810000D02*
X141110000Y-65800000D01*
X141110000Y-65800000D02*
X141250000Y-65800000D01*
X141250000Y-65800000D02*
X141100000Y-65800000D01*
X147500000Y-65810000D02*
X141100000Y-65810000D01*
X141100000Y-76400000D02*
X139850000Y-77650000D01*
X139850000Y-77650000D02*
X132650000Y-77650000D01*
X132650000Y-77650000D02*
X131826000Y-78474000D01*
X131826000Y-78474000D02*
X131826000Y-79502000D01*
X141100000Y-75350000D02*
X141100000Y-76400000D01*
X141100000Y-72550000D02*
X141100000Y-75350000D01*
X141100000Y-77250000D02*
X144430000Y-80580000D01*
X144430000Y-80580000D02*
X144430000Y-82100000D01*
X141100000Y-75350000D02*
X141100000Y-77250000D01*
D20*
X145250000Y-72350000D02*
X145600000Y-72000000D01*
X145600000Y-72000000D02*
X145600000Y-70000000D01*
D22*
X147447000Y-73406000D02*
X146939000Y-73406000D01*
X135890000Y-46228000D02*
X135890000Y-46736000D01*
D23*
X135890000Y-46228000D02*
X135890000Y-46355000D01*
D20*
X143950000Y-75950000D02*
X143500000Y-75500000D01*
X143500000Y-75500000D02*
X143500000Y-74050000D01*
D24*
G36*
X149715000Y-84415000D02*
X149183345Y-84415000D01*
X149183345Y-73430000D01*
X149069271Y-72856511D01*
X148744415Y-72370330D01*
X148429634Y-72160000D01*
X148744415Y-71949670D01*
X149069271Y-71463489D01*
X149183345Y-70890000D01*
X149069271Y-70316511D01*
X148744415Y-69830330D01*
X148434930Y-69623539D01*
X148850732Y-69252036D01*
X149104709Y-68724791D01*
X149107358Y-68709026D01*
X148986217Y-68477000D01*
X147627000Y-68477000D01*
X147627000Y-68497000D01*
X147373000Y-68497000D01*
X147373000Y-68477000D01*
X146013783Y-68477000D01*
X145892642Y-68709026D01*
X145895291Y-68724791D01*
X146124242Y-69200084D01*
X145787758Y-69060363D01*
X145413882Y-69060037D01*
X145068341Y-69202812D01*
X144803741Y-69466951D01*
X144660363Y-69812242D01*
X144660037Y-70186118D01*
X144802812Y-70531659D01*
X144812600Y-70541464D01*
X144812600Y-71513864D01*
X144718341Y-71552812D01*
X144453741Y-71816951D01*
X144310363Y-72162242D01*
X144310037Y-72536118D01*
X144452812Y-72881659D01*
X144716951Y-73146259D01*
X145062242Y-73289637D01*
X145436118Y-73289963D01*
X145781659Y-73147188D01*
X145895518Y-73033527D01*
X145816655Y-73430000D01*
X145930729Y-74003489D01*
X146255585Y-74489670D01*
X146741766Y-74814526D01*
X147315255Y-74928600D01*
X147684745Y-74928600D01*
X148258234Y-74814526D01*
X148744415Y-74489670D01*
X149069271Y-74003489D01*
X149183345Y-73430000D01*
X149183345Y-84415000D01*
X148480248Y-84415000D01*
X148480248Y-82331970D01*
X148454058Y-81736365D01*
X148276516Y-81307741D01*
X148023805Y-81225800D01*
X147844200Y-81405405D01*
X147844200Y-81046195D01*
X147762259Y-80793484D01*
X147201970Y-80589752D01*
X146606365Y-80615942D01*
X146177741Y-80793484D01*
X146095800Y-81046195D01*
X146970000Y-81920395D01*
X147844200Y-81046195D01*
X147844200Y-81405405D01*
X147149605Y-82100000D01*
X148023805Y-82974200D01*
X148276516Y-82892259D01*
X148480248Y-82331970D01*
X148480248Y-84415000D01*
X147844200Y-84415000D01*
X147844200Y-83153805D01*
X146970000Y-82279605D01*
X146095800Y-83153805D01*
X146177741Y-83406516D01*
X146738030Y-83610248D01*
X147333635Y-83584058D01*
X147762259Y-83406516D01*
X147844200Y-83153805D01*
X147844200Y-84415000D01*
X131699000Y-84415000D01*
X131699000Y-83381850D01*
X131699000Y-82169000D01*
X130486150Y-82169000D01*
X130327400Y-82327750D01*
X130327400Y-82779291D01*
X130327400Y-83031910D01*
X130424073Y-83265299D01*
X130602702Y-83443927D01*
X130836091Y-83540600D01*
X131540250Y-83540600D01*
X131699000Y-83381850D01*
X131699000Y-84415000D01*
X129085000Y-84415000D01*
X129085000Y-57454800D01*
X146038780Y-57454800D01*
X145930729Y-57616511D01*
X145816655Y-58190000D01*
X145930729Y-58763489D01*
X146255585Y-59249670D01*
X146570365Y-59460000D01*
X146255585Y-59670330D01*
X145930729Y-60156511D01*
X145816655Y-60730000D01*
X145930729Y-61303489D01*
X146255585Y-61789670D01*
X146570365Y-62000000D01*
X146255585Y-62210330D01*
X145930729Y-62696511D01*
X145816655Y-63270000D01*
X145930729Y-63843489D01*
X146255585Y-64329670D01*
X146570365Y-64540000D01*
X146255585Y-64750330D01*
X146226405Y-64794000D01*
X141993764Y-64794000D01*
X141818421Y-64531580D01*
X139268420Y-61981580D01*
X138938807Y-61761338D01*
X138874299Y-61748507D01*
X138550000Y-61684000D01*
X133074724Y-61684000D01*
X132769354Y-61557199D01*
X132314641Y-61556802D01*
X131894388Y-61730446D01*
X131572577Y-62051697D01*
X131398199Y-62471646D01*
X131397802Y-62926359D01*
X131571446Y-63346612D01*
X131892697Y-63668423D01*
X132312646Y-63842801D01*
X132767359Y-63843198D01*
X133075203Y-63716000D01*
X138129159Y-63716000D01*
X140084000Y-65670840D01*
X140084000Y-65800000D01*
X140084000Y-65810000D01*
X140084000Y-70750000D01*
X140084000Y-72263000D01*
X139204681Y-72263000D01*
X139204681Y-70916336D01*
X139192220Y-70705259D01*
X139192220Y-67947490D01*
X138999282Y-67480542D01*
X138642337Y-67122974D01*
X138175727Y-66929221D01*
X138173512Y-66929219D01*
X138640458Y-66736282D01*
X138998026Y-66379337D01*
X139191779Y-65912727D01*
X139192220Y-65407490D01*
X138999282Y-64940542D01*
X138642337Y-64582974D01*
X138175727Y-64389221D01*
X137670490Y-64388780D01*
X137203542Y-64581718D01*
X136845974Y-64938663D01*
X136652221Y-65405273D01*
X136651780Y-65910510D01*
X136844718Y-66377458D01*
X137201663Y-66735026D01*
X137668273Y-66928779D01*
X137670487Y-66928780D01*
X137203542Y-67121718D01*
X136845974Y-67478663D01*
X136652221Y-67945273D01*
X136651780Y-68450510D01*
X136844718Y-68917458D01*
X137201663Y-69275026D01*
X137668273Y-69468779D01*
X137885070Y-69468968D01*
X137594977Y-69486094D01*
X137267303Y-69621821D01*
X137213472Y-69850867D01*
X137922000Y-70559395D01*
X138630528Y-69850867D01*
X138576697Y-69621821D01*
X138136453Y-69469187D01*
X138173510Y-69469220D01*
X138640458Y-69276282D01*
X138998026Y-68919337D01*
X139191779Y-68452727D01*
X139192220Y-67947490D01*
X139192220Y-70705259D01*
X139174906Y-70411977D01*
X139039179Y-70084303D01*
X138810133Y-70030472D01*
X138101605Y-70739000D01*
X138810133Y-71447528D01*
X139039179Y-71393697D01*
X139204681Y-70916336D01*
X139204681Y-72263000D01*
X138702258Y-72263000D01*
X138642337Y-72202974D01*
X138175727Y-72009221D01*
X137958929Y-72009031D01*
X138249023Y-71991906D01*
X138576697Y-71856179D01*
X138630528Y-71627133D01*
X137922000Y-70918605D01*
X137742395Y-71098210D01*
X137742395Y-70739000D01*
X137033867Y-70030472D01*
X136804821Y-70084303D01*
X136639319Y-70561664D01*
X136669094Y-71066023D01*
X136804821Y-71393697D01*
X137033867Y-71447528D01*
X137742395Y-70739000D01*
X137742395Y-71098210D01*
X137213472Y-71627133D01*
X137267303Y-71856179D01*
X137707546Y-72008812D01*
X137670490Y-72008780D01*
X137203542Y-72201718D01*
X136845974Y-72558663D01*
X136652221Y-73025273D01*
X136651780Y-73530510D01*
X136844718Y-73997458D01*
X137201663Y-74355026D01*
X137638846Y-74536560D01*
X137287000Y-74536560D01*
X137044877Y-74583537D01*
X136832073Y-74723327D01*
X136689623Y-74934360D01*
X136639560Y-75184000D01*
X136639560Y-76454000D01*
X136674483Y-76634000D01*
X132650000Y-76634000D01*
X132325700Y-76698507D01*
X132261193Y-76711338D01*
X131931580Y-76931579D01*
X131107580Y-77755580D01*
X130887338Y-78085193D01*
X130874507Y-78149700D01*
X130823772Y-78404762D01*
X130823771Y-78404764D01*
X130535340Y-78836432D01*
X130429000Y-79371041D01*
X130429000Y-79632959D01*
X130535340Y-80167568D01*
X130797221Y-80559500D01*
X130602702Y-80640073D01*
X130424073Y-80818701D01*
X130327400Y-81052090D01*
X130327400Y-81304709D01*
X130327400Y-81756250D01*
X130486150Y-81915000D01*
X131699000Y-81915000D01*
X131699000Y-81895000D01*
X131953000Y-81895000D01*
X131953000Y-81915000D01*
X131973000Y-81915000D01*
X131973000Y-82169000D01*
X131953000Y-82169000D01*
X131953000Y-83381850D01*
X132111750Y-83540600D01*
X132815909Y-83540600D01*
X133049298Y-83443927D01*
X133227927Y-83265299D01*
X133312147Y-83061973D01*
X133378172Y-83160787D01*
X133831391Y-83463619D01*
X134366000Y-83569959D01*
X134900609Y-83463619D01*
X135353828Y-83160787D01*
X135636000Y-82738487D01*
X135918172Y-83160787D01*
X136371391Y-83463619D01*
X136906000Y-83569959D01*
X137440609Y-83463619D01*
X137893828Y-83160787D01*
X138176000Y-82738487D01*
X138458172Y-83160787D01*
X138911391Y-83463619D01*
X139446000Y-83569959D01*
X139980609Y-83463619D01*
X140433828Y-83160787D01*
X140736660Y-82707568D01*
X140843000Y-82172959D01*
X140843000Y-81911041D01*
X140736660Y-81376432D01*
X140433828Y-80923213D01*
X140207522Y-80772000D01*
X140433828Y-80620787D01*
X140736660Y-80167568D01*
X140843000Y-79632959D01*
X140843000Y-79371041D01*
X140736660Y-78836432D01*
X140468537Y-78435159D01*
X140568420Y-78368420D01*
X140674999Y-78261840D01*
X143411945Y-80998786D01*
X143160290Y-81250003D01*
X142931661Y-81800602D01*
X142931141Y-82396782D01*
X143158808Y-82947780D01*
X143580003Y-83369710D01*
X144130602Y-83598339D01*
X144726782Y-83598859D01*
X145277780Y-83371192D01*
X145699710Y-82949997D01*
X145716541Y-82909462D01*
X145916195Y-82974200D01*
X146790395Y-82100000D01*
X145916195Y-81225800D01*
X145716967Y-81290399D01*
X145701192Y-81252220D01*
X145446000Y-80996582D01*
X145446000Y-80580000D01*
X145381492Y-80255700D01*
X145368662Y-80191194D01*
X145368662Y-80191193D01*
X145148420Y-79861580D01*
X145148420Y-79861579D01*
X144889963Y-79603122D01*
X144889963Y-75763882D01*
X144747188Y-75418341D01*
X144483049Y-75153741D01*
X144287400Y-75072500D01*
X144287400Y-74591892D01*
X144296259Y-74583049D01*
X144439637Y-74237758D01*
X144439963Y-73863882D01*
X144297188Y-73518341D01*
X144033049Y-73253741D01*
X143687758Y-73110363D01*
X143313882Y-73110037D01*
X142968341Y-73252812D01*
X142703741Y-73516951D01*
X142560363Y-73862242D01*
X142560037Y-74236118D01*
X142702812Y-74581659D01*
X142712600Y-74591464D01*
X142712600Y-75500000D01*
X142772537Y-75801325D01*
X142943224Y-76056776D01*
X143010047Y-76123599D01*
X143010037Y-76136118D01*
X143152812Y-76481659D01*
X143416951Y-76746259D01*
X143762242Y-76889637D01*
X144136118Y-76889963D01*
X144481659Y-76747188D01*
X144746259Y-76483049D01*
X144889637Y-76137758D01*
X144889963Y-75763882D01*
X144889963Y-79603122D01*
X142116000Y-76829159D01*
X142116000Y-76400000D01*
X142116000Y-75350000D01*
X142116000Y-73750000D01*
X142116000Y-72550000D01*
X142116000Y-72400000D01*
X142116000Y-70750000D01*
X142116000Y-66826000D01*
X146226405Y-66826000D01*
X146255585Y-66869670D01*
X146565069Y-67076460D01*
X146149268Y-67447964D01*
X145895291Y-67975209D01*
X145892642Y-67990974D01*
X146013783Y-68223000D01*
X147373000Y-68223000D01*
X147373000Y-68203000D01*
X147627000Y-68203000D01*
X147627000Y-68223000D01*
X148986217Y-68223000D01*
X149107358Y-67990974D01*
X149104709Y-67975209D01*
X148850732Y-67447964D01*
X148434930Y-67076460D01*
X148744415Y-66869670D01*
X149069271Y-66383489D01*
X149183345Y-65810000D01*
X149069271Y-65236511D01*
X148744415Y-64750330D01*
X148429634Y-64540000D01*
X148744415Y-64329670D01*
X149069271Y-63843489D01*
X149183345Y-63270000D01*
X149069271Y-62696511D01*
X148744415Y-62210330D01*
X148429634Y-62000000D01*
X148744415Y-61789670D01*
X149069271Y-61303489D01*
X149183345Y-60730000D01*
X149069271Y-60156511D01*
X148744415Y-59670330D01*
X148429634Y-59460000D01*
X148744415Y-59249670D01*
X149069271Y-58763489D01*
X149183345Y-58190000D01*
X149069271Y-57616511D01*
X148961219Y-57454800D01*
X149715000Y-57454800D01*
X149715000Y-84415000D01*
X149715000Y-84415000D01*
G37*
X149715000Y-84415000D02*
X149183345Y-84415000D01*
X149183345Y-73430000D01*
X149069271Y-72856511D01*
X148744415Y-72370330D01*
X148429634Y-72160000D01*
X148744415Y-71949670D01*
X149069271Y-71463489D01*
X149183345Y-70890000D01*
X149069271Y-70316511D01*
X148744415Y-69830330D01*
X148434930Y-69623539D01*
X148850732Y-69252036D01*
X149104709Y-68724791D01*
X149107358Y-68709026D01*
X148986217Y-68477000D01*
X147627000Y-68477000D01*
X147627000Y-68497000D01*
X147373000Y-68497000D01*
X147373000Y-68477000D01*
X146013783Y-68477000D01*
X145892642Y-68709026D01*
X145895291Y-68724791D01*
X146124242Y-69200084D01*
X145787758Y-69060363D01*
X145413882Y-69060037D01*
X145068341Y-69202812D01*
X144803741Y-69466951D01*
X144660363Y-69812242D01*
X144660037Y-70186118D01*
X144802812Y-70531659D01*
X144812600Y-70541464D01*
X144812600Y-71513864D01*
X144718341Y-71552812D01*
X144453741Y-71816951D01*
X144310363Y-72162242D01*
X144310037Y-72536118D01*
X144452812Y-72881659D01*
X144716951Y-73146259D01*
X145062242Y-73289637D01*
X145436118Y-73289963D01*
X145781659Y-73147188D01*
X145895518Y-73033527D01*
X145816655Y-73430000D01*
X145930729Y-74003489D01*
X146255585Y-74489670D01*
X146741766Y-74814526D01*
X147315255Y-74928600D01*
X147684745Y-74928600D01*
X148258234Y-74814526D01*
X148744415Y-74489670D01*
X149069271Y-74003489D01*
X149183345Y-73430000D01*
X149183345Y-84415000D01*
X148480248Y-84415000D01*
X148480248Y-82331970D01*
X148454058Y-81736365D01*
X148276516Y-81307741D01*
X148023805Y-81225800D01*
X147844200Y-81405405D01*
X147844200Y-81046195D01*
X147762259Y-80793484D01*
X147201970Y-80589752D01*
X146606365Y-80615942D01*
X146177741Y-80793484D01*
X146095800Y-81046195D01*
X146970000Y-81920395D01*
X147844200Y-81046195D01*
X147844200Y-81405405D01*
X147149605Y-82100000D01*
X148023805Y-82974200D01*
X148276516Y-82892259D01*
X148480248Y-82331970D01*
X148480248Y-84415000D01*
X147844200Y-84415000D01*
X147844200Y-83153805D01*
X146970000Y-82279605D01*
X146095800Y-83153805D01*
X146177741Y-83406516D01*
X146738030Y-83610248D01*
X147333635Y-83584058D01*
X147762259Y-83406516D01*
X147844200Y-83153805D01*
X147844200Y-84415000D01*
X131699000Y-84415000D01*
X131699000Y-83381850D01*
X131699000Y-82169000D01*
X130486150Y-82169000D01*
X130327400Y-82327750D01*
X130327400Y-82779291D01*
X130327400Y-83031910D01*
X130424073Y-83265299D01*
X130602702Y-83443927D01*
X130836091Y-83540600D01*
X131540250Y-83540600D01*
X131699000Y-83381850D01*
X131699000Y-84415000D01*
X129085000Y-84415000D01*
X129085000Y-57454800D01*
X146038780Y-57454800D01*
X145930729Y-57616511D01*
X145816655Y-58190000D01*
X145930729Y-58763489D01*
X146255585Y-59249670D01*
X146570365Y-59460000D01*
X146255585Y-59670330D01*
X145930729Y-60156511D01*
X145816655Y-60730000D01*
X145930729Y-61303489D01*
X146255585Y-61789670D01*
X146570365Y-62000000D01*
X146255585Y-62210330D01*
X145930729Y-62696511D01*
X145816655Y-63270000D01*
X145930729Y-63843489D01*
X146255585Y-64329670D01*
X146570365Y-64540000D01*
X146255585Y-64750330D01*
X146226405Y-64794000D01*
X141993764Y-64794000D01*
X141818421Y-64531580D01*
X139268420Y-61981580D01*
X138938807Y-61761338D01*
X138874299Y-61748507D01*
X138550000Y-61684000D01*
X133074724Y-61684000D01*
X132769354Y-61557199D01*
X132314641Y-61556802D01*
X131894388Y-61730446D01*
X131572577Y-62051697D01*
X131398199Y-62471646D01*
X131397802Y-62926359D01*
X131571446Y-63346612D01*
X131892697Y-63668423D01*
X132312646Y-63842801D01*
X132767359Y-63843198D01*
X133075203Y-63716000D01*
X138129159Y-63716000D01*
X140084000Y-65670840D01*
X140084000Y-65800000D01*
X140084000Y-65810000D01*
X140084000Y-70750000D01*
X140084000Y-72263000D01*
X139204681Y-72263000D01*
X139204681Y-70916336D01*
X139192220Y-70705259D01*
X139192220Y-67947490D01*
X138999282Y-67480542D01*
X138642337Y-67122974D01*
X138175727Y-66929221D01*
X138173512Y-66929219D01*
X138640458Y-66736282D01*
X138998026Y-66379337D01*
X139191779Y-65912727D01*
X139192220Y-65407490D01*
X138999282Y-64940542D01*
X138642337Y-64582974D01*
X138175727Y-64389221D01*
X137670490Y-64388780D01*
X137203542Y-64581718D01*
X136845974Y-64938663D01*
X136652221Y-65405273D01*
X136651780Y-65910510D01*
X136844718Y-66377458D01*
X137201663Y-66735026D01*
X137668273Y-66928779D01*
X137670487Y-66928780D01*
X137203542Y-67121718D01*
X136845974Y-67478663D01*
X136652221Y-67945273D01*
X136651780Y-68450510D01*
X136844718Y-68917458D01*
X137201663Y-69275026D01*
X137668273Y-69468779D01*
X137885070Y-69468968D01*
X137594977Y-69486094D01*
X137267303Y-69621821D01*
X137213472Y-69850867D01*
X137922000Y-70559395D01*
X138630528Y-69850867D01*
X138576697Y-69621821D01*
X138136453Y-69469187D01*
X138173510Y-69469220D01*
X138640458Y-69276282D01*
X138998026Y-68919337D01*
X139191779Y-68452727D01*
X139192220Y-67947490D01*
X139192220Y-70705259D01*
X139174906Y-70411977D01*
X139039179Y-70084303D01*
X138810133Y-70030472D01*
X138101605Y-70739000D01*
X138810133Y-71447528D01*
X139039179Y-71393697D01*
X139204681Y-70916336D01*
X139204681Y-72263000D01*
X138702258Y-72263000D01*
X138642337Y-72202974D01*
X138175727Y-72009221D01*
X137958929Y-72009031D01*
X138249023Y-71991906D01*
X138576697Y-71856179D01*
X138630528Y-71627133D01*
X137922000Y-70918605D01*
X137742395Y-71098210D01*
X137742395Y-70739000D01*
X137033867Y-70030472D01*
X136804821Y-70084303D01*
X136639319Y-70561664D01*
X136669094Y-71066023D01*
X136804821Y-71393697D01*
X137033867Y-71447528D01*
X137742395Y-70739000D01*
X137742395Y-71098210D01*
X137213472Y-71627133D01*
X137267303Y-71856179D01*
X137707546Y-72008812D01*
X137670490Y-72008780D01*
X137203542Y-72201718D01*
X136845974Y-72558663D01*
X136652221Y-73025273D01*
X136651780Y-73530510D01*
X136844718Y-73997458D01*
X137201663Y-74355026D01*
X137638846Y-74536560D01*
X137287000Y-74536560D01*
X137044877Y-74583537D01*
X136832073Y-74723327D01*
X136689623Y-74934360D01*
X136639560Y-75184000D01*
X136639560Y-76454000D01*
X136674483Y-76634000D01*
X132650000Y-76634000D01*
X132325700Y-76698507D01*
X132261193Y-76711338D01*
X131931580Y-76931579D01*
X131107580Y-77755580D01*
X130887338Y-78085193D01*
X130874507Y-78149700D01*
X130823772Y-78404762D01*
X130823771Y-78404764D01*
X130535340Y-78836432D01*
X130429000Y-79371041D01*
X130429000Y-79632959D01*
X130535340Y-80167568D01*
X130797221Y-80559500D01*
X130602702Y-80640073D01*
X130424073Y-80818701D01*
X130327400Y-81052090D01*
X130327400Y-81304709D01*
X130327400Y-81756250D01*
X130486150Y-81915000D01*
X131699000Y-81915000D01*
X131699000Y-81895000D01*
X131953000Y-81895000D01*
X131953000Y-81915000D01*
X131973000Y-81915000D01*
X131973000Y-82169000D01*
X131953000Y-82169000D01*
X131953000Y-83381850D01*
X132111750Y-83540600D01*
X132815909Y-83540600D01*
X133049298Y-83443927D01*
X133227927Y-83265299D01*
X133312147Y-83061973D01*
X133378172Y-83160787D01*
X133831391Y-83463619D01*
X134366000Y-83569959D01*
X134900609Y-83463619D01*
X135353828Y-83160787D01*
X135636000Y-82738487D01*
X135918172Y-83160787D01*
X136371391Y-83463619D01*
X136906000Y-83569959D01*
X137440609Y-83463619D01*
X137893828Y-83160787D01*
X138176000Y-82738487D01*
X138458172Y-83160787D01*
X138911391Y-83463619D01*
X139446000Y-83569959D01*
X139980609Y-83463619D01*
X140433828Y-83160787D01*
X140736660Y-82707568D01*
X140843000Y-82172959D01*
X140843000Y-81911041D01*
X140736660Y-81376432D01*
X140433828Y-80923213D01*
X140207522Y-80772000D01*
X140433828Y-80620787D01*
X140736660Y-80167568D01*
X140843000Y-79632959D01*
X140843000Y-79371041D01*
X140736660Y-78836432D01*
X140468537Y-78435159D01*
X140568420Y-78368420D01*
X140674999Y-78261840D01*
X143411945Y-80998786D01*
X143160290Y-81250003D01*
X142931661Y-81800602D01*
X142931141Y-82396782D01*
X143158808Y-82947780D01*
X143580003Y-83369710D01*
X144130602Y-83598339D01*
X144726782Y-83598859D01*
X145277780Y-83371192D01*
X145699710Y-82949997D01*
X145716541Y-82909462D01*
X145916195Y-82974200D01*
X146790395Y-82100000D01*
X145916195Y-81225800D01*
X145716967Y-81290399D01*
X145701192Y-81252220D01*
X145446000Y-80996582D01*
X145446000Y-80580000D01*
X145381492Y-80255700D01*
X145368662Y-80191194D01*
X145368662Y-80191193D01*
X145148420Y-79861580D01*
X145148420Y-79861579D01*
X144889963Y-79603122D01*
X144889963Y-75763882D01*
X144747188Y-75418341D01*
X144483049Y-75153741D01*
X144287400Y-75072500D01*
X144287400Y-74591892D01*
X144296259Y-74583049D01*
X144439637Y-74237758D01*
X144439963Y-73863882D01*
X144297188Y-73518341D01*
X144033049Y-73253741D01*
X143687758Y-73110363D01*
X143313882Y-73110037D01*
X142968341Y-73252812D01*
X142703741Y-73516951D01*
X142560363Y-73862242D01*
X142560037Y-74236118D01*
X142702812Y-74581659D01*
X142712600Y-74591464D01*
X142712600Y-75500000D01*
X142772537Y-75801325D01*
X142943224Y-76056776D01*
X143010047Y-76123599D01*
X143010037Y-76136118D01*
X143152812Y-76481659D01*
X143416951Y-76746259D01*
X143762242Y-76889637D01*
X144136118Y-76889963D01*
X144481659Y-76747188D01*
X144746259Y-76483049D01*
X144889637Y-76137758D01*
X144889963Y-75763882D01*
X144889963Y-79603122D01*
X142116000Y-76829159D01*
X142116000Y-76400000D01*
X142116000Y-75350000D01*
X142116000Y-73750000D01*
X142116000Y-72550000D01*
X142116000Y-72400000D01*
X142116000Y-70750000D01*
X142116000Y-66826000D01*
X146226405Y-66826000D01*
X146255585Y-66869670D01*
X146565069Y-67076460D01*
X146149268Y-67447964D01*
X145895291Y-67975209D01*
X145892642Y-67990974D01*
X146013783Y-68223000D01*
X147373000Y-68223000D01*
X147373000Y-68203000D01*
X147627000Y-68203000D01*
X147627000Y-68223000D01*
X148986217Y-68223000D01*
X149107358Y-67990974D01*
X149104709Y-67975209D01*
X148850732Y-67447964D01*
X148434930Y-67076460D01*
X148744415Y-66869670D01*
X149069271Y-66383489D01*
X149183345Y-65810000D01*
X149069271Y-65236511D01*
X148744415Y-64750330D01*
X148429634Y-64540000D01*
X148744415Y-64329670D01*
X149069271Y-63843489D01*
X149183345Y-63270000D01*
X149069271Y-62696511D01*
X148744415Y-62210330D01*
X148429634Y-62000000D01*
X148744415Y-61789670D01*
X149069271Y-61303489D01*
X149183345Y-60730000D01*
X149069271Y-60156511D01*
X148744415Y-59670330D01*
X148429634Y-59460000D01*
X148744415Y-59249670D01*
X149069271Y-58763489D01*
X149183345Y-58190000D01*
X149069271Y-57616511D01*
X148961219Y-57454800D01*
X149715000Y-57454800D01*
X149715000Y-84415000D01*
M02*
