G04 #@! TF.FileFunction,Legend,Top*
%FSLAX46Y46*%
G04 Gerber Fmt 4.6, Leading zero omitted, Abs format (unit mm)*
G04 Created by KiCad (PCBNEW 0.201411241846+5301~19~ubuntu14.04.1-product) date Tue Jun  9 07:59:30 2015*
%MOMM*%
G01*
G04 APERTURE LIST*
%ADD10C,0.100000*%
%ADD11C,0.150000*%
%ADD12C,0.127000*%
G04 APERTURE END LIST*
D10*
X136002381Y-50666666D02*
X135526190Y-51000000D01*
X136002381Y-51238095D02*
X135002381Y-51238095D01*
X135002381Y-50857142D01*
X135050000Y-50761904D01*
X135097619Y-50714285D01*
X135192857Y-50666666D01*
X135335714Y-50666666D01*
X135430952Y-50714285D01*
X135478571Y-50761904D01*
X135526190Y-50857142D01*
X135526190Y-51238095D01*
X135907143Y-49666666D02*
X135954762Y-49714285D01*
X136002381Y-49857142D01*
X136002381Y-49952380D01*
X135954762Y-50095238D01*
X135859524Y-50190476D01*
X135764286Y-50238095D01*
X135573810Y-50285714D01*
X135430952Y-50285714D01*
X135240476Y-50238095D01*
X135145238Y-50190476D01*
X135050000Y-50095238D01*
X135002381Y-49952380D01*
X135002381Y-49857142D01*
X135050000Y-49714285D01*
X135097619Y-49666666D01*
X135335714Y-48809523D02*
X136002381Y-48809523D01*
X134954762Y-49047619D02*
X135669048Y-49285714D01*
X135669048Y-48666666D01*
X146938096Y-83950000D02*
X146842858Y-83902381D01*
X146700001Y-83902381D01*
X146557143Y-83950000D01*
X146461905Y-84045238D01*
X146414286Y-84140476D01*
X146366667Y-84330952D01*
X146366667Y-84473810D01*
X146414286Y-84664286D01*
X146461905Y-84759524D01*
X146557143Y-84854762D01*
X146700001Y-84902381D01*
X146795239Y-84902381D01*
X146938096Y-84854762D01*
X146985715Y-84807143D01*
X146985715Y-84473810D01*
X146795239Y-84473810D01*
X147414286Y-84902381D02*
X147414286Y-83902381D01*
X147985715Y-84902381D01*
X147985715Y-83902381D01*
X148461905Y-84902381D02*
X148461905Y-83902381D01*
X148700000Y-83902381D01*
X148842858Y-83950000D01*
X148938096Y-84045238D01*
X148985715Y-84140476D01*
X149033334Y-84330952D01*
X149033334Y-84473810D01*
X148985715Y-84664286D01*
X148938096Y-84759524D01*
X148842858Y-84854762D01*
X148700000Y-84902381D01*
X148461905Y-84902381D01*
X142916667Y-83902381D02*
X143250000Y-84902381D01*
X143583334Y-83902381D01*
X143916667Y-84902381D02*
X143916667Y-83902381D01*
X144154762Y-83902381D01*
X144297620Y-83950000D01*
X144392858Y-84045238D01*
X144440477Y-84140476D01*
X144488096Y-84330952D01*
X144488096Y-84473810D01*
X144440477Y-84664286D01*
X144392858Y-84759524D01*
X144297620Y-84854762D01*
X144154762Y-84902381D01*
X143916667Y-84902381D01*
X144916667Y-84902381D02*
X144916667Y-83902381D01*
X145154762Y-83902381D01*
X145297620Y-83950000D01*
X145392858Y-84045238D01*
X145440477Y-84140476D01*
X145488096Y-84330952D01*
X145488096Y-84473810D01*
X145440477Y-84664286D01*
X145392858Y-84759524D01*
X145297620Y-84854762D01*
X145154762Y-84902381D01*
X144916667Y-84902381D01*
X134028571Y-57902381D02*
X134219047Y-57902381D01*
X134314286Y-57854762D01*
X134361905Y-57807143D01*
X134457143Y-57664286D01*
X134504762Y-57473810D01*
X134504762Y-57092857D01*
X134457143Y-56997619D01*
X134409524Y-56950000D01*
X134314286Y-56902381D01*
X134123809Y-56902381D01*
X134028571Y-56950000D01*
X133980952Y-56997619D01*
X133933333Y-57092857D01*
X133933333Y-57330952D01*
X133980952Y-57426190D01*
X134028571Y-57473810D01*
X134123809Y-57521429D01*
X134314286Y-57521429D01*
X134409524Y-57473810D01*
X134457143Y-57426190D01*
X134504762Y-57330952D01*
X135219048Y-56902381D02*
X135219048Y-57616667D01*
X135171428Y-57759524D01*
X135076190Y-57854762D01*
X134933333Y-57902381D01*
X134838095Y-57902381D01*
X135695238Y-56902381D02*
X135695238Y-57711905D01*
X135742857Y-57807143D01*
X135790476Y-57854762D01*
X135885714Y-57902381D01*
X136076191Y-57902381D01*
X136171429Y-57854762D01*
X136219048Y-57807143D01*
X136266667Y-57711905D01*
X136266667Y-56902381D01*
X136742857Y-57902381D02*
X136742857Y-56902381D01*
X137314286Y-57902381D01*
X137314286Y-56902381D01*
X138314286Y-57902381D02*
X137742857Y-57902381D01*
X138028571Y-57902381D02*
X138028571Y-56902381D01*
X137933333Y-57045238D01*
X137838095Y-57140476D01*
X137742857Y-57188095D01*
X139219048Y-56902381D02*
X138742857Y-56902381D01*
X138695238Y-57378571D01*
X138742857Y-57330952D01*
X138838095Y-57283333D01*
X139076191Y-57283333D01*
X139171429Y-57330952D01*
X139219048Y-57378571D01*
X139266667Y-57473810D01*
X139266667Y-57711905D01*
X139219048Y-57807143D01*
X139171429Y-57854762D01*
X139076191Y-57902381D01*
X138838095Y-57902381D01*
X138742857Y-57854762D01*
X138695238Y-57807143D01*
X133721429Y-52202381D02*
X133959524Y-53202381D01*
X134150001Y-52488095D01*
X134340477Y-53202381D01*
X134578572Y-52202381D01*
X134959524Y-53202381D02*
X134959524Y-52202381D01*
X136007143Y-53202381D02*
X135673809Y-52726190D01*
X135435714Y-53202381D02*
X135435714Y-52202381D01*
X135816667Y-52202381D01*
X135911905Y-52250000D01*
X135959524Y-52297619D01*
X136007143Y-52392857D01*
X136007143Y-52535714D01*
X135959524Y-52630952D01*
X135911905Y-52678571D01*
X135816667Y-52726190D01*
X135435714Y-52726190D01*
X136435714Y-52678571D02*
X136769048Y-52678571D01*
X136911905Y-53202381D02*
X136435714Y-53202381D01*
X136435714Y-52202381D01*
X136911905Y-52202381D01*
X137816667Y-53202381D02*
X137340476Y-53202381D01*
X137340476Y-52202381D01*
X138150000Y-52678571D02*
X138483334Y-52678571D01*
X138626191Y-53202381D02*
X138150000Y-53202381D01*
X138150000Y-52202381D01*
X138626191Y-52202381D01*
X139007143Y-53154762D02*
X139150000Y-53202381D01*
X139388096Y-53202381D01*
X139483334Y-53154762D01*
X139530953Y-53107143D01*
X139578572Y-53011905D01*
X139578572Y-52916667D01*
X139530953Y-52821429D01*
X139483334Y-52773810D01*
X139388096Y-52726190D01*
X139197619Y-52678571D01*
X139102381Y-52630952D01*
X139054762Y-52583333D01*
X139007143Y-52488095D01*
X139007143Y-52392857D01*
X139054762Y-52297619D01*
X139102381Y-52250000D01*
X139197619Y-52202381D01*
X139435715Y-52202381D01*
X139578572Y-52250000D01*
X139959524Y-53154762D02*
X140102381Y-53202381D01*
X140340477Y-53202381D01*
X140435715Y-53154762D01*
X140483334Y-53107143D01*
X140530953Y-53011905D01*
X140530953Y-52916667D01*
X140483334Y-52821429D01*
X140435715Y-52773810D01*
X140340477Y-52726190D01*
X140150000Y-52678571D01*
X140054762Y-52630952D01*
X140007143Y-52583333D01*
X139959524Y-52488095D01*
X139959524Y-52392857D01*
X140007143Y-52297619D01*
X140054762Y-52250000D01*
X140150000Y-52202381D01*
X140388096Y-52202381D01*
X140530953Y-52250000D01*
X134388095Y-54654762D02*
X134530952Y-54702381D01*
X134769048Y-54702381D01*
X134864286Y-54654762D01*
X134911905Y-54607143D01*
X134959524Y-54511905D01*
X134959524Y-54416667D01*
X134911905Y-54321429D01*
X134864286Y-54273810D01*
X134769048Y-54226190D01*
X134578571Y-54178571D01*
X134483333Y-54130952D01*
X134435714Y-54083333D01*
X134388095Y-53988095D01*
X134388095Y-53892857D01*
X134435714Y-53797619D01*
X134483333Y-53750000D01*
X134578571Y-53702381D01*
X134816667Y-53702381D01*
X134959524Y-53750000D01*
X135388095Y-54178571D02*
X135721429Y-54178571D01*
X135864286Y-54702381D02*
X135388095Y-54702381D01*
X135388095Y-53702381D01*
X135864286Y-53702381D01*
X136292857Y-54702381D02*
X136292857Y-53702381D01*
X136864286Y-54702381D01*
X136864286Y-53702381D01*
X137292857Y-54654762D02*
X137435714Y-54702381D01*
X137673810Y-54702381D01*
X137769048Y-54654762D01*
X137816667Y-54607143D01*
X137864286Y-54511905D01*
X137864286Y-54416667D01*
X137816667Y-54321429D01*
X137769048Y-54273810D01*
X137673810Y-54226190D01*
X137483333Y-54178571D01*
X137388095Y-54130952D01*
X137340476Y-54083333D01*
X137292857Y-53988095D01*
X137292857Y-53892857D01*
X137340476Y-53797619D01*
X137388095Y-53750000D01*
X137483333Y-53702381D01*
X137721429Y-53702381D01*
X137864286Y-53750000D01*
X138483333Y-53702381D02*
X138673810Y-53702381D01*
X138769048Y-53750000D01*
X138864286Y-53845238D01*
X138911905Y-54035714D01*
X138911905Y-54369048D01*
X138864286Y-54559524D01*
X138769048Y-54654762D01*
X138673810Y-54702381D01*
X138483333Y-54702381D01*
X138388095Y-54654762D01*
X138292857Y-54559524D01*
X138245238Y-54369048D01*
X138245238Y-54035714D01*
X138292857Y-53845238D01*
X138388095Y-53750000D01*
X138483333Y-53702381D01*
X139911905Y-54702381D02*
X139578571Y-54226190D01*
X139340476Y-54702381D02*
X139340476Y-53702381D01*
X139721429Y-53702381D01*
X139816667Y-53750000D01*
X139864286Y-53797619D01*
X139911905Y-53892857D01*
X139911905Y-54035714D01*
X139864286Y-54130952D01*
X139816667Y-54178571D01*
X139721429Y-54226190D01*
X139340476Y-54226190D01*
X135269048Y-55678571D02*
X135411905Y-55726190D01*
X135459524Y-55773810D01*
X135507143Y-55869048D01*
X135507143Y-56011905D01*
X135459524Y-56107143D01*
X135411905Y-56154762D01*
X135316667Y-56202381D01*
X134935714Y-56202381D01*
X134935714Y-55202381D01*
X135269048Y-55202381D01*
X135364286Y-55250000D01*
X135411905Y-55297619D01*
X135459524Y-55392857D01*
X135459524Y-55488095D01*
X135411905Y-55583333D01*
X135364286Y-55630952D01*
X135269048Y-55678571D01*
X134935714Y-55678571D01*
X136126190Y-55202381D02*
X136316667Y-55202381D01*
X136411905Y-55250000D01*
X136507143Y-55345238D01*
X136554762Y-55535714D01*
X136554762Y-55869048D01*
X136507143Y-56059524D01*
X136411905Y-56154762D01*
X136316667Y-56202381D01*
X136126190Y-56202381D01*
X136030952Y-56154762D01*
X135935714Y-56059524D01*
X135888095Y-55869048D01*
X135888095Y-55535714D01*
X135935714Y-55345238D01*
X136030952Y-55250000D01*
X136126190Y-55202381D01*
X136935714Y-55916667D02*
X137411905Y-55916667D01*
X136840476Y-56202381D02*
X137173809Y-55202381D01*
X137507143Y-56202381D01*
X138411905Y-56202381D02*
X138078571Y-55726190D01*
X137840476Y-56202381D02*
X137840476Y-55202381D01*
X138221429Y-55202381D01*
X138316667Y-55250000D01*
X138364286Y-55297619D01*
X138411905Y-55392857D01*
X138411905Y-55535714D01*
X138364286Y-55630952D01*
X138316667Y-55678571D01*
X138221429Y-55726190D01*
X137840476Y-55726190D01*
X138840476Y-56202381D02*
X138840476Y-55202381D01*
X139078571Y-55202381D01*
X139221429Y-55250000D01*
X139316667Y-55345238D01*
X139364286Y-55440476D01*
X139411905Y-55630952D01*
X139411905Y-55773810D01*
X139364286Y-55964286D01*
X139316667Y-56059524D01*
X139221429Y-56154762D01*
X139078571Y-56202381D01*
X138840476Y-56202381D01*
X146904762Y-47602381D02*
X146571428Y-47126190D01*
X146333333Y-47602381D02*
X146333333Y-46602381D01*
X146714286Y-46602381D01*
X146809524Y-46650000D01*
X146857143Y-46697619D01*
X146904762Y-46792857D01*
X146904762Y-46935714D01*
X146857143Y-47030952D01*
X146809524Y-47078571D01*
X146714286Y-47126190D01*
X146333333Y-47126190D01*
X147285714Y-47316667D02*
X147761905Y-47316667D01*
X147190476Y-47602381D02*
X147523809Y-46602381D01*
X147857143Y-47602381D01*
X148619048Y-46935714D02*
X148619048Y-47602381D01*
X148380952Y-46554762D02*
X148142857Y-47269048D01*
X148761905Y-47269048D01*
X142202381Y-50645238D02*
X141726190Y-50978572D01*
X142202381Y-51216667D02*
X141202381Y-51216667D01*
X141202381Y-50835714D01*
X141250000Y-50740476D01*
X141297619Y-50692857D01*
X141392857Y-50645238D01*
X141535714Y-50645238D01*
X141630952Y-50692857D01*
X141678571Y-50740476D01*
X141726190Y-50835714D01*
X141726190Y-51216667D01*
X141916667Y-50264286D02*
X141916667Y-49788095D01*
X142202381Y-50359524D02*
X141202381Y-50026191D01*
X142202381Y-49692857D01*
X141202381Y-48883333D02*
X141202381Y-49359524D01*
X141678571Y-49407143D01*
X141630952Y-49359524D01*
X141583333Y-49264286D01*
X141583333Y-49026190D01*
X141630952Y-48930952D01*
X141678571Y-48883333D01*
X141773810Y-48835714D01*
X142011905Y-48835714D01*
X142107143Y-48883333D01*
X142154762Y-48930952D01*
X142202381Y-49026190D01*
X142202381Y-49264286D01*
X142154762Y-49359524D01*
X142107143Y-49407143D01*
X138552381Y-50566666D02*
X138076190Y-50900000D01*
X138552381Y-51138095D02*
X137552381Y-51138095D01*
X137552381Y-50757142D01*
X137600000Y-50661904D01*
X137647619Y-50614285D01*
X137742857Y-50566666D01*
X137885714Y-50566666D01*
X137980952Y-50614285D01*
X138028571Y-50661904D01*
X138076190Y-50757142D01*
X138076190Y-51138095D01*
X138457143Y-49566666D02*
X138504762Y-49614285D01*
X138552381Y-49757142D01*
X138552381Y-49852380D01*
X138504762Y-49995238D01*
X138409524Y-50090476D01*
X138314286Y-50138095D01*
X138123810Y-50185714D01*
X137980952Y-50185714D01*
X137790476Y-50138095D01*
X137695238Y-50090476D01*
X137600000Y-49995238D01*
X137552381Y-49852380D01*
X137552381Y-49757142D01*
X137600000Y-49614285D01*
X137647619Y-49566666D01*
X137552381Y-48661904D02*
X137552381Y-49138095D01*
X138028571Y-49185714D01*
X137980952Y-49138095D01*
X137933333Y-49042857D01*
X137933333Y-48804761D01*
X137980952Y-48709523D01*
X138028571Y-48661904D01*
X138123810Y-48614285D01*
X138361905Y-48614285D01*
X138457143Y-48661904D01*
X138504762Y-48709523D01*
X138552381Y-48804761D01*
X138552381Y-49042857D01*
X138504762Y-49138095D01*
X138457143Y-49185714D01*
X133402381Y-50666666D02*
X132926190Y-51000000D01*
X133402381Y-51238095D02*
X132402381Y-51238095D01*
X132402381Y-50857142D01*
X132450000Y-50761904D01*
X132497619Y-50714285D01*
X132592857Y-50666666D01*
X132735714Y-50666666D01*
X132830952Y-50714285D01*
X132878571Y-50761904D01*
X132926190Y-50857142D01*
X132926190Y-51238095D01*
X133307143Y-49666666D02*
X133354762Y-49714285D01*
X133402381Y-49857142D01*
X133402381Y-49952380D01*
X133354762Y-50095238D01*
X133259524Y-50190476D01*
X133164286Y-50238095D01*
X132973810Y-50285714D01*
X132830952Y-50285714D01*
X132640476Y-50238095D01*
X132545238Y-50190476D01*
X132450000Y-50095238D01*
X132402381Y-49952380D01*
X132402381Y-49857142D01*
X132450000Y-49714285D01*
X132497619Y-49666666D01*
X132402381Y-49333333D02*
X132402381Y-48714285D01*
X132783333Y-49047619D01*
X132783333Y-48904761D01*
X132830952Y-48809523D01*
X132878571Y-48761904D01*
X132973810Y-48714285D01*
X133211905Y-48714285D01*
X133307143Y-48761904D01*
X133354762Y-48809523D01*
X133402381Y-48904761D01*
X133402381Y-49190476D01*
X133354762Y-49285714D01*
X133307143Y-49333333D01*
X143535714Y-73854762D02*
X143678571Y-73902381D01*
X143916667Y-73902381D01*
X144011905Y-73854762D01*
X144059524Y-73807143D01*
X144107143Y-73711905D01*
X144107143Y-73616667D01*
X144059524Y-73521429D01*
X144011905Y-73473810D01*
X143916667Y-73426190D01*
X143726190Y-73378571D01*
X143630952Y-73330952D01*
X143583333Y-73283333D01*
X143535714Y-73188095D01*
X143535714Y-73092857D01*
X143583333Y-72997619D01*
X143630952Y-72950000D01*
X143726190Y-72902381D01*
X143964286Y-72902381D01*
X144107143Y-72950000D01*
X144535714Y-73902381D02*
X144535714Y-72902381D01*
X144773809Y-72902381D01*
X144916667Y-72950000D01*
X145011905Y-73045238D01*
X145059524Y-73140476D01*
X145107143Y-73330952D01*
X145107143Y-73473810D01*
X145059524Y-73664286D01*
X145011905Y-73759524D01*
X144916667Y-73854762D01*
X144773809Y-73902381D01*
X144535714Y-73902381D01*
X145488095Y-73616667D02*
X145964286Y-73616667D01*
X145392857Y-73902381D02*
X145726190Y-72902381D01*
X146059524Y-73902381D01*
X143559524Y-71404762D02*
X143702381Y-71452381D01*
X143940477Y-71452381D01*
X144035715Y-71404762D01*
X144083334Y-71357143D01*
X144130953Y-71261905D01*
X144130953Y-71166667D01*
X144083334Y-71071429D01*
X144035715Y-71023810D01*
X143940477Y-70976190D01*
X143750000Y-70928571D01*
X143654762Y-70880952D01*
X143607143Y-70833333D01*
X143559524Y-70738095D01*
X143559524Y-70642857D01*
X143607143Y-70547619D01*
X143654762Y-70500000D01*
X143750000Y-70452381D01*
X143988096Y-70452381D01*
X144130953Y-70500000D01*
X145130953Y-71357143D02*
X145083334Y-71404762D01*
X144940477Y-71452381D01*
X144845239Y-71452381D01*
X144702381Y-71404762D01*
X144607143Y-71309524D01*
X144559524Y-71214286D01*
X144511905Y-71023810D01*
X144511905Y-70880952D01*
X144559524Y-70690476D01*
X144607143Y-70595238D01*
X144702381Y-70500000D01*
X144845239Y-70452381D01*
X144940477Y-70452381D01*
X145083334Y-70500000D01*
X145130953Y-70547619D01*
X146035715Y-71452381D02*
X145559524Y-71452381D01*
X145559524Y-70452381D01*
X143988096Y-67950000D02*
X143892858Y-67902381D01*
X143750001Y-67902381D01*
X143607143Y-67950000D01*
X143511905Y-68045238D01*
X143464286Y-68140476D01*
X143416667Y-68330952D01*
X143416667Y-68473810D01*
X143464286Y-68664286D01*
X143511905Y-68759524D01*
X143607143Y-68854762D01*
X143750001Y-68902381D01*
X143845239Y-68902381D01*
X143988096Y-68854762D01*
X144035715Y-68807143D01*
X144035715Y-68473810D01*
X143845239Y-68473810D01*
X144464286Y-68902381D02*
X144464286Y-67902381D01*
X145035715Y-68902381D01*
X145035715Y-67902381D01*
X145511905Y-68902381D02*
X145511905Y-67902381D01*
X145750000Y-67902381D01*
X145892858Y-67950000D01*
X145988096Y-68045238D01*
X146035715Y-68140476D01*
X146083334Y-68330952D01*
X146083334Y-68473810D01*
X146035715Y-68664286D01*
X145988096Y-68759524D01*
X145892858Y-68854762D01*
X145750000Y-68902381D01*
X145511905Y-68902381D01*
X143416667Y-65352381D02*
X143750000Y-66352381D01*
X144083334Y-65352381D01*
X144416667Y-66352381D02*
X144416667Y-65352381D01*
X144654762Y-65352381D01*
X144797620Y-65400000D01*
X144892858Y-65495238D01*
X144940477Y-65590476D01*
X144988096Y-65780952D01*
X144988096Y-65923810D01*
X144940477Y-66114286D01*
X144892858Y-66209524D01*
X144797620Y-66304762D01*
X144654762Y-66352381D01*
X144416667Y-66352381D01*
X145416667Y-66352381D02*
X145416667Y-65352381D01*
X145654762Y-65352381D01*
X145797620Y-65400000D01*
X145892858Y-65495238D01*
X145940477Y-65590476D01*
X145988096Y-65780952D01*
X145988096Y-65923810D01*
X145940477Y-66114286D01*
X145892858Y-66209524D01*
X145797620Y-66304762D01*
X145654762Y-66352381D01*
X145416667Y-66352381D01*
X143414286Y-63754762D02*
X143557143Y-63802381D01*
X143795239Y-63802381D01*
X143890477Y-63754762D01*
X143938096Y-63707143D01*
X143985715Y-63611905D01*
X143985715Y-63516667D01*
X143938096Y-63421429D01*
X143890477Y-63373810D01*
X143795239Y-63326190D01*
X143604762Y-63278571D01*
X143509524Y-63230952D01*
X143461905Y-63183333D01*
X143414286Y-63088095D01*
X143414286Y-62992857D01*
X143461905Y-62897619D01*
X143509524Y-62850000D01*
X143604762Y-62802381D01*
X143842858Y-62802381D01*
X143985715Y-62850000D01*
X144985715Y-63707143D02*
X144938096Y-63754762D01*
X144795239Y-63802381D01*
X144700001Y-63802381D01*
X144557143Y-63754762D01*
X144461905Y-63659524D01*
X144414286Y-63564286D01*
X144366667Y-63373810D01*
X144366667Y-63230952D01*
X144414286Y-63040476D01*
X144461905Y-62945238D01*
X144557143Y-62850000D01*
X144700001Y-62802381D01*
X144795239Y-62802381D01*
X144938096Y-62850000D01*
X144985715Y-62897619D01*
X145414286Y-63802381D02*
X145414286Y-62802381D01*
X145985715Y-63802381D02*
X145557143Y-63230952D01*
X145985715Y-62802381D02*
X145414286Y-63373810D01*
X143290476Y-61204762D02*
X143433333Y-61252381D01*
X143671429Y-61252381D01*
X143766667Y-61204762D01*
X143814286Y-61157143D01*
X143861905Y-61061905D01*
X143861905Y-60966667D01*
X143814286Y-60871429D01*
X143766667Y-60823810D01*
X143671429Y-60776190D01*
X143480952Y-60728571D01*
X143385714Y-60680952D01*
X143338095Y-60633333D01*
X143290476Y-60538095D01*
X143290476Y-60442857D01*
X143338095Y-60347619D01*
X143385714Y-60300000D01*
X143480952Y-60252381D01*
X143719048Y-60252381D01*
X143861905Y-60300000D01*
X144290476Y-61252381D02*
X144290476Y-60252381D01*
X144528571Y-60252381D01*
X144671429Y-60300000D01*
X144766667Y-60395238D01*
X144814286Y-60490476D01*
X144861905Y-60680952D01*
X144861905Y-60823810D01*
X144814286Y-61014286D01*
X144766667Y-61109524D01*
X144671429Y-61204762D01*
X144528571Y-61252381D01*
X144290476Y-61252381D01*
X145480952Y-60252381D02*
X145671429Y-60252381D01*
X145766667Y-60300000D01*
X145861905Y-60395238D01*
X145909524Y-60585714D01*
X145909524Y-60919048D01*
X145861905Y-61109524D01*
X145766667Y-61204762D01*
X145671429Y-61252381D01*
X145480952Y-61252381D01*
X145385714Y-61204762D01*
X145290476Y-61109524D01*
X145242857Y-60919048D01*
X145242857Y-60585714D01*
X145290476Y-60395238D01*
X145385714Y-60300000D01*
X145480952Y-60252381D01*
X143726191Y-58604762D02*
X143869048Y-58652381D01*
X144107144Y-58652381D01*
X144202382Y-58604762D01*
X144250001Y-58557143D01*
X144297620Y-58461905D01*
X144297620Y-58366667D01*
X144250001Y-58271429D01*
X144202382Y-58223810D01*
X144107144Y-58176190D01*
X143916667Y-58128571D01*
X143821429Y-58080952D01*
X143773810Y-58033333D01*
X143726191Y-57938095D01*
X143726191Y-57842857D01*
X143773810Y-57747619D01*
X143821429Y-57700000D01*
X143916667Y-57652381D01*
X144154763Y-57652381D01*
X144297620Y-57700000D01*
X144726191Y-58652381D02*
X144726191Y-57652381D01*
X144964286Y-57652381D01*
X145107144Y-57700000D01*
X145202382Y-57795238D01*
X145250001Y-57890476D01*
X145297620Y-58080952D01*
X145297620Y-58223810D01*
X145250001Y-58414286D01*
X145202382Y-58509524D01*
X145107144Y-58604762D01*
X144964286Y-58652381D01*
X144726191Y-58652381D01*
X145726191Y-58652381D02*
X145726191Y-57652381D01*
X144033334Y-56152381D02*
X143700000Y-55676190D01*
X143461905Y-56152381D02*
X143461905Y-55152381D01*
X143842858Y-55152381D01*
X143938096Y-55200000D01*
X143985715Y-55247619D01*
X144033334Y-55342857D01*
X144033334Y-55485714D01*
X143985715Y-55580952D01*
X143938096Y-55628571D01*
X143842858Y-55676190D01*
X143461905Y-55676190D01*
X145033334Y-56057143D02*
X144985715Y-56104762D01*
X144842858Y-56152381D01*
X144747620Y-56152381D01*
X144604762Y-56104762D01*
X144509524Y-56009524D01*
X144461905Y-55914286D01*
X144414286Y-55723810D01*
X144414286Y-55580952D01*
X144461905Y-55390476D01*
X144509524Y-55295238D01*
X144604762Y-55200000D01*
X144747620Y-55152381D01*
X144842858Y-55152381D01*
X144985715Y-55200000D01*
X145033334Y-55247619D01*
X145652381Y-55152381D02*
X145747620Y-55152381D01*
X145842858Y-55200000D01*
X145890477Y-55247619D01*
X145938096Y-55342857D01*
X145985715Y-55533333D01*
X145985715Y-55771429D01*
X145938096Y-55961905D01*
X145890477Y-56057143D01*
X145842858Y-56104762D01*
X145747620Y-56152381D01*
X145652381Y-56152381D01*
X145557143Y-56104762D01*
X145509524Y-56057143D01*
X145461905Y-55961905D01*
X145414286Y-55771429D01*
X145414286Y-55533333D01*
X145461905Y-55342857D01*
X145509524Y-55247619D01*
X145557143Y-55200000D01*
X145652381Y-55152381D01*
X144204762Y-53502381D02*
X143871428Y-53026190D01*
X143633333Y-53502381D02*
X143633333Y-52502381D01*
X144014286Y-52502381D01*
X144109524Y-52550000D01*
X144157143Y-52597619D01*
X144204762Y-52692857D01*
X144204762Y-52835714D01*
X144157143Y-52930952D01*
X144109524Y-52978571D01*
X144014286Y-53026190D01*
X143633333Y-53026190D01*
X144585714Y-53216667D02*
X145061905Y-53216667D01*
X144490476Y-53502381D02*
X144823809Y-52502381D01*
X145157143Y-53502381D01*
X146014286Y-53502381D02*
X145442857Y-53502381D01*
X145728571Y-53502381D02*
X145728571Y-52502381D01*
X145633333Y-52645238D01*
X145538095Y-52740476D01*
X145442857Y-52788095D01*
X144154762Y-51102381D02*
X143821428Y-50626190D01*
X143583333Y-51102381D02*
X143583333Y-50102381D01*
X143964286Y-50102381D01*
X144059524Y-50150000D01*
X144107143Y-50197619D01*
X144154762Y-50292857D01*
X144154762Y-50435714D01*
X144107143Y-50530952D01*
X144059524Y-50578571D01*
X143964286Y-50626190D01*
X143583333Y-50626190D01*
X144535714Y-50816667D02*
X145011905Y-50816667D01*
X144440476Y-51102381D02*
X144773809Y-50102381D01*
X145107143Y-51102381D01*
X145630952Y-50102381D02*
X145726191Y-50102381D01*
X145821429Y-50150000D01*
X145869048Y-50197619D01*
X145916667Y-50292857D01*
X145964286Y-50483333D01*
X145964286Y-50721429D01*
X145916667Y-50911905D01*
X145869048Y-51007143D01*
X145821429Y-51054762D01*
X145726191Y-51102381D01*
X145630952Y-51102381D01*
X145535714Y-51054762D01*
X145488095Y-51007143D01*
X145440476Y-50911905D01*
X145392857Y-50721429D01*
X145392857Y-50483333D01*
X145440476Y-50292857D01*
X145488095Y-50197619D01*
X145535714Y-50150000D01*
X145630952Y-50102381D01*
X129950000Y-50711904D02*
X129902381Y-50807142D01*
X129902381Y-50949999D01*
X129950000Y-51092857D01*
X130045238Y-51188095D01*
X130140476Y-51235714D01*
X130330952Y-51283333D01*
X130473810Y-51283333D01*
X130664286Y-51235714D01*
X130759524Y-51188095D01*
X130854762Y-51092857D01*
X130902381Y-50949999D01*
X130902381Y-50854761D01*
X130854762Y-50711904D01*
X130807143Y-50664285D01*
X130473810Y-50664285D01*
X130473810Y-50854761D01*
X130902381Y-50235714D02*
X129902381Y-50235714D01*
X130902381Y-49664285D01*
X129902381Y-49664285D01*
X130902381Y-49188095D02*
X129902381Y-49188095D01*
X129902381Y-48950000D01*
X129950000Y-48807142D01*
X130045238Y-48711904D01*
X130140476Y-48664285D01*
X130330952Y-48616666D01*
X130473810Y-48616666D01*
X130664286Y-48664285D01*
X130759524Y-48711904D01*
X130854762Y-48807142D01*
X130902381Y-48950000D01*
X130902381Y-49188095D01*
X140047619Y-63564286D02*
X141047619Y-63564286D01*
X141047619Y-63945239D01*
X141000000Y-64040477D01*
X140952381Y-64088096D01*
X140857143Y-64135715D01*
X140714286Y-64135715D01*
X140619048Y-64088096D01*
X140571429Y-64040477D01*
X140523810Y-63945239D01*
X140523810Y-63564286D01*
X140047619Y-64564286D02*
X141047619Y-64564286D01*
X140142857Y-65611905D02*
X140095238Y-65564286D01*
X140047619Y-65421429D01*
X140047619Y-65326191D01*
X140095238Y-65183333D01*
X140190476Y-65088095D01*
X140285714Y-65040476D01*
X140476190Y-64992857D01*
X140619048Y-64992857D01*
X140809524Y-65040476D01*
X140904762Y-65088095D01*
X141000000Y-65183333D01*
X141047619Y-65326191D01*
X141047619Y-65421429D01*
X141000000Y-65564286D01*
X140952381Y-65611905D01*
X140047619Y-66564286D02*
X140047619Y-65992857D01*
X140047619Y-66278571D02*
X141047619Y-66278571D01*
X140904762Y-66183333D01*
X140809524Y-66088095D01*
X140761905Y-65992857D01*
X141047619Y-67421429D02*
X141047619Y-67230952D01*
X141000000Y-67135714D01*
X140952381Y-67088095D01*
X140809524Y-66992857D01*
X140619048Y-66945238D01*
X140238095Y-66945238D01*
X140142857Y-66992857D01*
X140095238Y-67040476D01*
X140047619Y-67135714D01*
X140047619Y-67326191D01*
X140095238Y-67421429D01*
X140142857Y-67469048D01*
X140238095Y-67516667D01*
X140476190Y-67516667D01*
X140571429Y-67469048D01*
X140619048Y-67421429D01*
X140666667Y-67326191D01*
X140666667Y-67135714D01*
X140619048Y-67040476D01*
X140571429Y-66992857D01*
X140476190Y-66945238D01*
X140571429Y-68278572D02*
X140571429Y-67945238D01*
X140047619Y-67945238D02*
X141047619Y-67945238D01*
X141047619Y-68421429D01*
X140047619Y-69326191D02*
X140047619Y-68754762D01*
X140047619Y-69040476D02*
X141047619Y-69040476D01*
X140904762Y-68945238D01*
X140809524Y-68850000D01*
X140761905Y-68754762D01*
X141047619Y-70183334D02*
X141047619Y-69992857D01*
X141000000Y-69897619D01*
X140952381Y-69850000D01*
X140809524Y-69754762D01*
X140619048Y-69707143D01*
X140238095Y-69707143D01*
X140142857Y-69754762D01*
X140095238Y-69802381D01*
X140047619Y-69897619D01*
X140047619Y-70088096D01*
X140095238Y-70183334D01*
X140142857Y-70230953D01*
X140238095Y-70278572D01*
X140476190Y-70278572D01*
X140571429Y-70230953D01*
X140619048Y-70183334D01*
X140666667Y-70088096D01*
X140666667Y-69897619D01*
X140619048Y-69802381D01*
X140571429Y-69754762D01*
X140476190Y-69707143D01*
X140047619Y-71230953D02*
X140047619Y-70659524D01*
X140047619Y-70945238D02*
X141047619Y-70945238D01*
X140904762Y-70850000D01*
X140809524Y-70754762D01*
X140761905Y-70659524D01*
X140619048Y-71802381D02*
X140666667Y-71707143D01*
X140714286Y-71659524D01*
X140809524Y-71611905D01*
X140857143Y-71611905D01*
X140952381Y-71659524D01*
X141000000Y-71707143D01*
X141047619Y-71802381D01*
X141047619Y-71992858D01*
X141000000Y-72088096D01*
X140952381Y-72135715D01*
X140857143Y-72183334D01*
X140809524Y-72183334D01*
X140714286Y-72135715D01*
X140666667Y-72088096D01*
X140619048Y-71992858D01*
X140619048Y-71802381D01*
X140571429Y-71707143D01*
X140523810Y-71659524D01*
X140428571Y-71611905D01*
X140238095Y-71611905D01*
X140142857Y-71659524D01*
X140095238Y-71707143D01*
X140047619Y-71802381D01*
X140047619Y-71992858D01*
X140095238Y-72088096D01*
X140142857Y-72135715D01*
X140238095Y-72183334D01*
X140428571Y-72183334D01*
X140523810Y-72135715D01*
X140571429Y-72088096D01*
X140619048Y-71992858D01*
D11*
X131700000Y-59900000D02*
X131700000Y-60900000D01*
X133400000Y-60900000D02*
X133400000Y-59900000D01*
X128750000Y-80300000D02*
X128750000Y-81300000D01*
X130450000Y-81300000D02*
X130450000Y-80300000D01*
X148650000Y-76000000D02*
X147650000Y-76000000D01*
X147650000Y-77700000D02*
X148650000Y-77700000D01*
X148600000Y-78250000D02*
X147600000Y-78250000D01*
X147600000Y-79950000D02*
X148600000Y-79950000D01*
X148700000Y-83600000D02*
X142700000Y-83600000D01*
X142700000Y-83600000D02*
X142700000Y-80600000D01*
X142700000Y-80600000D02*
X148700000Y-80600000D01*
X148700000Y-80600000D02*
X148700000Y-83600000D01*
X146000000Y-48500000D02*
X140000000Y-48500000D01*
X140000000Y-48500000D02*
X140000000Y-45500000D01*
X140000000Y-45500000D02*
X146000000Y-45500000D01*
X146000000Y-45500000D02*
X146000000Y-48500000D01*
X148770000Y-51840000D02*
X148770000Y-74700000D01*
X148770000Y-74700000D02*
X146230000Y-74700000D01*
X146230000Y-74700000D02*
X146230000Y-51840000D01*
X148770000Y-49300000D02*
X148770000Y-51840000D01*
X148770000Y-51840000D02*
X146230000Y-51840000D01*
X148770000Y-49300000D02*
X146230000Y-49300000D01*
X146230000Y-49300000D02*
X146230000Y-51840000D01*
D10*
X136652000Y-77089000D02*
X136652000Y-64389000D01*
X136652000Y-64389000D02*
X139192000Y-64389000D01*
X139192000Y-64389000D02*
X139192000Y-77089000D01*
X139192000Y-77089000D02*
X136652000Y-77089000D01*
D11*
X129050000Y-45750000D02*
X139250000Y-45750000D01*
X139250000Y-45750000D02*
X139250000Y-48300000D01*
X139250000Y-48300000D02*
X128900000Y-48300000D01*
X128900000Y-48300000D02*
X128900000Y-45750000D01*
X128900000Y-45750000D02*
X128950000Y-45750000D01*
X144900000Y-77725000D02*
X143700000Y-77725000D01*
X143700000Y-75975000D02*
X144900000Y-75975000D01*
X144750000Y-79975000D02*
X143550000Y-79975000D01*
X143550000Y-78225000D02*
X144750000Y-78225000D01*
X133541000Y-63096000D02*
X136841000Y-63096000D01*
X133541000Y-63096000D02*
X133541000Y-75996000D01*
X133541000Y-75996000D02*
X141441000Y-75996000D01*
X141441000Y-75996000D02*
X141441000Y-63096000D01*
X141441000Y-63096000D02*
X138241000Y-63096000D01*
X138241000Y-63096000D02*
X138241000Y-63896000D01*
X138241000Y-63896000D02*
X136941000Y-63896000D01*
X136941000Y-63896000D02*
X136941000Y-63096000D01*
D10*
X131285714Y-59808333D02*
X131323810Y-59846428D01*
X131361905Y-59960714D01*
X131361905Y-60036904D01*
X131323810Y-60151190D01*
X131247619Y-60227381D01*
X131171429Y-60265476D01*
X131019048Y-60303571D01*
X130904762Y-60303571D01*
X130752381Y-60265476D01*
X130676190Y-60227381D01*
X130600000Y-60151190D01*
X130561905Y-60036904D01*
X130561905Y-59960714D01*
X130600000Y-59846428D01*
X130638095Y-59808333D01*
X131361905Y-59046428D02*
X131361905Y-59503571D01*
X131361905Y-59275000D02*
X130561905Y-59275000D01*
X130676190Y-59351190D01*
X130752381Y-59427381D01*
X130790476Y-59503571D01*
X129996514Y-78158133D02*
X130034610Y-78196228D01*
X130072705Y-78310514D01*
X130072705Y-78386704D01*
X130034610Y-78500990D01*
X129958419Y-78577181D01*
X129882229Y-78615276D01*
X129729848Y-78653371D01*
X129615562Y-78653371D01*
X129463181Y-78615276D01*
X129386990Y-78577181D01*
X129310800Y-78500990D01*
X129272705Y-78386704D01*
X129272705Y-78310514D01*
X129310800Y-78196228D01*
X129348895Y-78158133D01*
X129348895Y-77853371D02*
X129310800Y-77815276D01*
X129272705Y-77739085D01*
X129272705Y-77548609D01*
X129310800Y-77472419D01*
X129348895Y-77434323D01*
X129425086Y-77396228D01*
X129501276Y-77396228D01*
X129615562Y-77434323D01*
X130072705Y-77891466D01*
X130072705Y-77396228D01*
X147659524Y-75711905D02*
X147659524Y-74911905D01*
X147850000Y-74911905D01*
X147964286Y-74950000D01*
X148040477Y-75026190D01*
X148078572Y-75102381D01*
X148116667Y-75254762D01*
X148116667Y-75369048D01*
X148078572Y-75521429D01*
X148040477Y-75597619D01*
X147964286Y-75673810D01*
X147850000Y-75711905D01*
X147659524Y-75711905D01*
X148878572Y-75711905D02*
X148421429Y-75711905D01*
X148650000Y-75711905D02*
X148650000Y-74911905D01*
X148573810Y-75026190D01*
X148497619Y-75102381D01*
X148421429Y-75140476D01*
X149961905Y-81390476D02*
X149161905Y-81390476D01*
X149161905Y-81200000D01*
X149200000Y-81085714D01*
X149276190Y-81009523D01*
X149352381Y-80971428D01*
X149504762Y-80933333D01*
X149619048Y-80933333D01*
X149771429Y-80971428D01*
X149847619Y-81009523D01*
X149923810Y-81085714D01*
X149961905Y-81200000D01*
X149961905Y-81390476D01*
X149238095Y-80628571D02*
X149200000Y-80590476D01*
X149161905Y-80514285D01*
X149161905Y-80323809D01*
X149200000Y-80247619D01*
X149238095Y-80209523D01*
X149314286Y-80171428D01*
X149390476Y-80171428D01*
X149504762Y-80209523D01*
X149961905Y-80666666D01*
X149961905Y-80171428D01*
X142452381Y-82988095D02*
X141452381Y-82988095D01*
X141452381Y-82607142D01*
X141500000Y-82511904D01*
X141547619Y-82464285D01*
X141642857Y-82416666D01*
X141785714Y-82416666D01*
X141880952Y-82464285D01*
X141928571Y-82511904D01*
X141976190Y-82607142D01*
X141976190Y-82988095D01*
X142452381Y-81464285D02*
X142452381Y-82035714D01*
X142452381Y-81750000D02*
X141452381Y-81750000D01*
X141595238Y-81845238D01*
X141690476Y-81940476D01*
X141738095Y-82035714D01*
X146411905Y-46302381D02*
X146411905Y-45302381D01*
X146792858Y-45302381D01*
X146888096Y-45350000D01*
X146935715Y-45397619D01*
X146983334Y-45492857D01*
X146983334Y-45635714D01*
X146935715Y-45730952D01*
X146888096Y-45778571D01*
X146792858Y-45826190D01*
X146411905Y-45826190D01*
X147364286Y-45397619D02*
X147411905Y-45350000D01*
X147507143Y-45302381D01*
X147745239Y-45302381D01*
X147840477Y-45350000D01*
X147888096Y-45397619D01*
X147935715Y-45492857D01*
X147935715Y-45588095D01*
X147888096Y-45730952D01*
X147316667Y-46302381D01*
X147935715Y-46302381D01*
X148411905Y-49002381D02*
X148411905Y-48002381D01*
X148792858Y-48002381D01*
X148888096Y-48050000D01*
X148935715Y-48097619D01*
X148983334Y-48192857D01*
X148983334Y-48335714D01*
X148935715Y-48430952D01*
X148888096Y-48478571D01*
X148792858Y-48526190D01*
X148411905Y-48526190D01*
X149316667Y-48002381D02*
X149935715Y-48002381D01*
X149602381Y-48383333D01*
X149745239Y-48383333D01*
X149840477Y-48430952D01*
X149888096Y-48478571D01*
X149935715Y-48573810D01*
X149935715Y-48811905D01*
X149888096Y-48907143D01*
X149840477Y-48954762D01*
X149745239Y-49002381D01*
X149459524Y-49002381D01*
X149364286Y-48954762D01*
X149316667Y-48907143D01*
X134811905Y-77352381D02*
X134811905Y-76352381D01*
X135192858Y-76352381D01*
X135288096Y-76400000D01*
X135335715Y-76447619D01*
X135383334Y-76542857D01*
X135383334Y-76685714D01*
X135335715Y-76780952D01*
X135288096Y-76828571D01*
X135192858Y-76876190D01*
X134811905Y-76876190D01*
X136240477Y-76685714D02*
X136240477Y-77352381D01*
X136002381Y-76304762D02*
X135764286Y-77019048D01*
X136383334Y-77019048D01*
X129702381Y-51238095D02*
X128702381Y-51238095D01*
X128702381Y-50857142D01*
X128750000Y-50761904D01*
X128797619Y-50714285D01*
X128892857Y-50666666D01*
X129035714Y-50666666D01*
X129130952Y-50714285D01*
X129178571Y-50761904D01*
X129226190Y-50857142D01*
X129226190Y-51238095D01*
X128702381Y-49761904D02*
X128702381Y-50238095D01*
X129178571Y-50285714D01*
X129130952Y-50238095D01*
X129083333Y-50142857D01*
X129083333Y-49904761D01*
X129130952Y-49809523D01*
X129178571Y-49761904D01*
X129273810Y-49714285D01*
X129511905Y-49714285D01*
X129607143Y-49761904D01*
X129654762Y-49809523D01*
X129702381Y-49904761D01*
X129702381Y-50142857D01*
X129654762Y-50238095D01*
X129607143Y-50285714D01*
X142411905Y-76983333D02*
X142030952Y-77250000D01*
X142411905Y-77440476D02*
X141611905Y-77440476D01*
X141611905Y-77135714D01*
X141650000Y-77059523D01*
X141688095Y-77021428D01*
X141764286Y-76983333D01*
X141878571Y-76983333D01*
X141954762Y-77021428D01*
X141992857Y-77059523D01*
X142030952Y-77135714D01*
X142030952Y-77440476D01*
X142411905Y-76221428D02*
X142411905Y-76678571D01*
X142411905Y-76450000D02*
X141611905Y-76450000D01*
X141726190Y-76526190D01*
X141802381Y-76602381D01*
X141840476Y-76678571D01*
X144747619Y-75761905D02*
X144290476Y-75761905D01*
X144519047Y-75761905D02*
X144519047Y-74961905D01*
X144442857Y-75076190D01*
X144366666Y-75152381D01*
X144290476Y-75190476D01*
X145242857Y-74961905D02*
X145319048Y-74961905D01*
X145395238Y-75000000D01*
X145433333Y-75038095D01*
X145471429Y-75114286D01*
X145509524Y-75266667D01*
X145509524Y-75457143D01*
X145471429Y-75609524D01*
X145433333Y-75685714D01*
X145395238Y-75723810D01*
X145319048Y-75761905D01*
X145242857Y-75761905D01*
X145166667Y-75723810D01*
X145128571Y-75685714D01*
X145090476Y-75609524D01*
X145052381Y-75457143D01*
X145052381Y-75266667D01*
X145090476Y-75114286D01*
X145128571Y-75038095D01*
X145166667Y-75000000D01*
X145242857Y-74961905D01*
X145852381Y-75761905D02*
X145852381Y-74961905D01*
X146309524Y-75761905D02*
X145966667Y-75304762D01*
X146309524Y-74961905D02*
X145852381Y-75419048D01*
X141311905Y-79633333D02*
X140930952Y-79900000D01*
X141311905Y-80090476D02*
X140511905Y-80090476D01*
X140511905Y-79785714D01*
X140550000Y-79709523D01*
X140588095Y-79671428D01*
X140664286Y-79633333D01*
X140778571Y-79633333D01*
X140854762Y-79671428D01*
X140892857Y-79709523D01*
X140930952Y-79785714D01*
X140930952Y-80090476D01*
X140588095Y-79328571D02*
X140550000Y-79290476D01*
X140511905Y-79214285D01*
X140511905Y-79023809D01*
X140550000Y-78947619D01*
X140588095Y-78909523D01*
X140664286Y-78871428D01*
X140740476Y-78871428D01*
X140854762Y-78909523D01*
X141311905Y-79366666D01*
X141311905Y-78871428D01*
X142311905Y-79702381D02*
X142311905Y-80159524D01*
X142311905Y-79930953D02*
X141511905Y-79930953D01*
X141626190Y-80007143D01*
X141702381Y-80083334D01*
X141740476Y-80159524D01*
X141511905Y-79207143D02*
X141511905Y-79130952D01*
X141550000Y-79054762D01*
X141588095Y-79016667D01*
X141664286Y-78978571D01*
X141816667Y-78940476D01*
X142007143Y-78940476D01*
X142159524Y-78978571D01*
X142235714Y-79016667D01*
X142273810Y-79054762D01*
X142311905Y-79130952D01*
X142311905Y-79207143D01*
X142273810Y-79283333D01*
X142235714Y-79321429D01*
X142159524Y-79359524D01*
X142007143Y-79397619D01*
X141816667Y-79397619D01*
X141664286Y-79359524D01*
X141588095Y-79321429D01*
X141550000Y-79283333D01*
X141511905Y-79207143D01*
X142311905Y-78597619D02*
X141511905Y-78597619D01*
X142311905Y-78140476D02*
X141854762Y-78483333D01*
X141511905Y-78140476D02*
X141969048Y-78597619D01*
D12*
X129815429Y-64911143D02*
X131049143Y-64911143D01*
X131194286Y-64838571D01*
X131266857Y-64766000D01*
X131339429Y-64620857D01*
X131339429Y-64330571D01*
X131266857Y-64185429D01*
X131194286Y-64112857D01*
X131049143Y-64040286D01*
X129815429Y-64040286D01*
X129960571Y-63387143D02*
X129888000Y-63314572D01*
X129815429Y-63169429D01*
X129815429Y-62806572D01*
X129888000Y-62661429D01*
X129960571Y-62588858D01*
X130105714Y-62516286D01*
X130250857Y-62516286D01*
X130468571Y-62588858D01*
X131339429Y-63459715D01*
X131339429Y-62516286D01*
M02*
