M48
;DRILL file {kicad 0.201504161001+5603~22~ubuntu14.04.1-product} date Wed Jun 10 22:22:29 2015
;FORMAT={-:-/ absolute / inch / decimal}
FMAT,2
INCH,TZ
T1C0.016
T2C0.024
T3C0.032
T4C0.036
T5C0.040
%
G90
G05
M72
T1
X5.4Y-2.3575
X5.61Y-2.475
X5.6496Y-2.9154
X5.6673Y-2.9902
X5.7185Y-2.8484
X5.7323Y-2.7559
X5.876Y-2.9783
T2
X5.2181Y-2.4685
X5.2185Y-2.2933
X5.43Y-2.585
X5.43Y-2.685
X5.43Y-2.785
X5.43Y-2.885
X5.43Y-2.985
T3
X5.1319Y-2.002
X5.19Y-3.13
X5.2319Y-2.002
X5.29Y-3.13
X5.29Y-3.23
X5.3319Y-2.002
X5.39Y-3.13
X5.39Y-3.23
X5.4319Y-2.002
X5.49Y-3.13
X5.49Y-3.23
X5.5319Y-2.002
X5.6319Y-2.002
X5.7709Y-3.2283
X5.8709Y-3.2283
T4
X5.8071Y-1.9909
X5.8071Y-2.0909
X5.8071Y-2.1909
X5.8071Y-2.2909
X5.8071Y-2.3909
X5.8071Y-2.4909
X5.8071Y-2.5909
X5.8071Y-2.6909
X5.8071Y-2.7909
X5.8071Y-2.8909
T5
X5.19Y-3.23
T0
M30
